<svg id="Layer_1" data-name="Layer 1" xmlns="http://www.w3.org/2000/svg" viewBox="0 0 452 308"><defs><style>.cls-1{fill:#fff;}.cls-1,.cls-2{stroke:#126ea6;stroke-miterlimit:10;stroke-width:20px;}.cls-2{fill:none;}.cls-3{fill:#126ea6;}</style></defs><title>React-Gridizer Logo</title><rect class="cls-1" x="10" y="10" width="432" height="288" rx="24"/><line class="cls-2" x1="442" y1="154" x2="10" y2="154"/><line class="cls-2" x1="298" y1="10" x2="298" y2="154"/><line class="cls-2" x1="154" y1="298" x2="154" y2="154"/><path class="cls-3" d="M313,349.81a9.42,9.42,0,0,1-.9,4.24,9.17,9.17,0,0,1-2.45,3.06,13.34,13.34,0,0,1-3.46,2l8.9,14.33H306l-7.35-13h-2.28v13h-8V339.5H299c4.63,0,8.11.84,10.47,2.52S313,346.3,313,349.81Zm-8.28,0a4.21,4.21,0,0,0-1.43-3.56,6.8,6.8,0,0,0-4.25-1.12h-2.67V355h3a5.78,5.78,0,0,0,4-1.23A5,5,0,0,0,304.73,349.81Z" transform="translate(-206 -278)"/><path class="cls-3" d="M325,362.7a8.11,8.11,0,0,0,1.12,3.44,5,5,0,0,0,2.17,1.91,7.08,7.08,0,0,0,3,.6,10.44,10.44,0,0,0,3.46-.59,15.38,15.38,0,0,0,3.21-1.57l3.11,4.22a15.38,15.38,0,0,1-4.45,2.57,16.44,16.44,0,0,1-5.94,1,14.52,14.52,0,0,1-7.47-1.78,11.34,11.34,0,0,1-4.54-4.89,16.13,16.13,0,0,1-1.52-7.15,16.34,16.34,0,0,1,1.47-7,12,12,0,0,1,4.3-5,12.28,12.28,0,0,1,6.93-1.87,12.59,12.59,0,0,1,6.45,1.59,10.76,10.76,0,0,1,4.24,4.58,15.86,15.86,0,0,1,1.51,7.18c0,.44,0,.91,0,1.42s-.06,1-.11,1.35Zm4.81-10.93a4.22,4.22,0,0,0-3.36,1.49A8.42,8.42,0,0,0,325,358h9.55a8.62,8.62,0,0,0-1.1-4.55A3.86,3.86,0,0,0,329.85,351.77Z" transform="translate(-206 -278)"/><path class="cls-3" d="M369.63,366a4.23,4.23,0,0,0,.41,2.13,2.49,2.49,0,0,0,1.31,1l-1.59,5.1a11.06,11.06,0,0,1-3.89-1,5.76,5.76,0,0,1-2.48-2.41,9,9,0,0,1-3.83,2.66,13.44,13.44,0,0,1-4.75.87A8.92,8.92,0,0,1,348.4,372a7.84,7.84,0,0,1-2.39-5.9,7.51,7.51,0,0,1,3.32-6.54c2.22-1.53,5.33-2.3,9.35-2.3h3.5v-1a3.52,3.52,0,0,0-1.31-3,6.35,6.35,0,0,0-3.83-1,18.58,18.58,0,0,0-3.21.36,28.29,28.29,0,0,0-3.92,1l-1.79-5.15a28.75,28.75,0,0,1,5.26-1.44,27.65,27.65,0,0,1,4.88-.49c3.88,0,6.74.78,8.59,2.36a8.44,8.44,0,0,1,2.78,6.82Zm-12.15,2.79a5.47,5.47,0,0,0,2.62-.75,4.89,4.89,0,0,0,2.08-2.12v-4.21h-1.91a8.9,8.9,0,0,0-4.75,1,3.25,3.25,0,0,0-1.52,2.9,3,3,0,0,0,.92,2.34A3.61,3.61,0,0,0,357.48,368.75Z" transform="translate(-206 -278)"/><path class="cls-3" d="M390.92,368.19a7.27,7.27,0,0,0,3-.63,17,17,0,0,0,2.81-1.6l3.45,4.9a14.76,14.76,0,0,1-9.67,3.43,14.28,14.28,0,0,1-7.21-1.73,11.7,11.7,0,0,1-4.63-4.8,15.11,15.11,0,0,1-1.61-7.15,15.41,15.41,0,0,1,1.65-7.23,12.28,12.28,0,0,1,4.7-5,13.92,13.92,0,0,1,7.24-1.81,15.65,15.65,0,0,1,5.28.82,13.67,13.67,0,0,1,4.25,2.43l-3.35,4.66A11.65,11.65,0,0,0,394,353a9.27,9.27,0,0,0-3.06-.51,5.3,5.3,0,0,0-4.22,1.85q-1.61,1.85-1.61,6.23a10.93,10.93,0,0,0,.76,4.52,4.86,4.86,0,0,0,2.07,2.36A6.24,6.24,0,0,0,390.92,368.19Z" transform="translate(-206 -278)"/><path class="cls-3" d="M430,371.93a15.24,15.24,0,0,1-3.67,1.67,15.94,15.94,0,0,1-4.86.69c-3.39,0-5.92-.87-7.57-2.61a9.9,9.9,0,0,1-2.47-7.1V352.77h-5.46v-5.34h5.46V341.8l7.74-.93v6.56h8.38l-.76,5.34h-7.62v11.81a3.71,3.71,0,0,0,.88,2.77,4,4,0,0,0,2.82.84,9,9,0,0,0,2.51-.34,9.77,9.77,0,0,0,2.05-.84Z" transform="translate(-206 -278)"/><path class="cls-3" d="M401.35,517.55a15.19,15.19,0,0,1-8.13-2,12.73,12.73,0,0,1-5-6,24.85,24.85,0,0,1-1.71-9.81,22.26,22.26,0,0,1,1.22-7.66,15.6,15.6,0,0,1,3.37-5.56,14.3,14.3,0,0,1,5-3.39,16.36,16.36,0,0,1,6.17-1.15,15.11,15.11,0,0,1,6.27,1.15,16.54,16.54,0,0,1,4.54,3l-4.22,4.37a12.32,12.32,0,0,0-3-2,7.62,7.62,0,0,0-3.24-.66,7.4,7.4,0,0,0-3.14.67,6.66,6.66,0,0,0-2.5,2.11,10.84,10.84,0,0,0-1.66,3.7,22.23,22.23,0,0,0-.58,5.48,27.58,27.58,0,0,0,.72,7,6.89,6.89,0,0,0,2.19,3.76,5.89,5.89,0,0,0,3.72,1.14,8.59,8.59,0,0,0,2.26-.28,10.2,10.2,0,0,0,2-.75v-7.76h-4.26l-.79-5.64h12.64v16.88a24.25,24.25,0,0,1-5.47,2.5A21.08,21.08,0,0,1,401.35,517.55Z" transform="translate(-206 -278)"/><path class="cls-3" d="M418.48,516.72v-5.19h3.43V495.85h-3.43V490.7h9.33l1.42,5.86a11.67,11.67,0,0,1,3.57-5,8.47,8.47,0,0,1,5.3-1.64,11.79,11.79,0,0,1,2.35.21,10.66,10.66,0,0,1,1.94.57L440,497.1a10.58,10.58,0,0,0-1.42-.3,12.57,12.57,0,0,0-1.57-.1,5.91,5.91,0,0,0-4.47,2.09,13.53,13.53,0,0,0-2.93,5.29v7.45h5.14v5.19Zm17.61-15.14V494l1.15-3.28h5.15l-1.45,10.88Z" transform="translate(-206 -278)"/><path class="cls-3" d="M463.53,490.7v20.73h6.62v5.29H448.41v-5.29h7.38V496h-7.13V490.7Zm-4.68-13.62a4.48,4.48,0,0,1,3.28,1.25,4.43,4.43,0,0,1,0,6.23,4.42,4.42,0,0,1-3.28,1.27,4.52,4.52,0,0,1-3.32-1.27,4.43,4.43,0,0,1,0-6.23A4.59,4.59,0,0,1,458.85,477.08Z" transform="translate(-206 -278)"/><path class="cls-3" d="M491.83,479.55l7.74.81v36.36h-6.86l-.39-2.87a9.41,9.41,0,0,1-2.87,2.61,9.13,9.13,0,0,1-9.69-.65A10.32,10.32,0,0,1,476.6,511a23.27,23.27,0,0,1-1-7.31,19.06,19.06,0,0,1,1.25-7.13,11.12,11.12,0,0,1,3.58-4.89,8.87,8.87,0,0,1,5.53-1.78,8.46,8.46,0,0,1,3.24.62,8.12,8.12,0,0,1,2.67,1.78ZM488,495.5a3.73,3.73,0,0,0-3.24,1.9c-.81,1.27-1.22,3.36-1.22,6.29a18.88,18.88,0,0,0,.51,5,4.78,4.78,0,0,0,1.42,2.49,3.32,3.32,0,0,0,2.08.71,3.82,3.82,0,0,0,2.37-.81,7.69,7.69,0,0,0,1.9-2.2V497.63a6.71,6.71,0,0,0-1.72-1.56A3.84,3.84,0,0,0,488,495.5Z" transform="translate(-206 -278)"/><path class="cls-3" d="M522.33,490.7v20.73H529v5.29H507.21v-5.29h7.38V496h-7.13V490.7Zm-4.68-13.62a4.5,4.5,0,0,1,3.28,1.25,4.43,4.43,0,0,1,0,6.23,4.43,4.43,0,0,1-3.28,1.27,4.51,4.51,0,0,1-3.32-1.27,4.41,4.41,0,0,1,0-6.23A4.58,4.58,0,0,1,517.65,477.08Z" transform="translate(-206 -278)"/><path class="cls-3" d="M545.07,510.86h13l-.73,5.86H535.93v-5.46l12.91-14.73H537V490.7h20.85v5.44Z" transform="translate(-206 -278)"/><path class="cls-3" d="M571.94,506a8.16,8.16,0,0,0,1.12,3.45,5,5,0,0,0,2.16,1.91,7.13,7.13,0,0,0,3,.6,10.34,10.34,0,0,0,3.45-.59,15.38,15.38,0,0,0,3.21-1.57L588,514a15.19,15.19,0,0,1-4.44,2.57,16.44,16.44,0,0,1-5.94,1,14.56,14.56,0,0,1-7.48-1.77,11.43,11.43,0,0,1-4.53-4.89,16.16,16.16,0,0,1-1.52-7.15,16.34,16.34,0,0,1,1.47-7,12,12,0,0,1,4.3-5,12.28,12.28,0,0,1,6.92-1.88,12.51,12.51,0,0,1,6.46,1.6,10.82,10.82,0,0,1,4.24,4.58A15.83,15.83,0,0,1,589,503.2c0,.44,0,.91,0,1.42s-.06.95-.11,1.34Zm4.8-10.92a4.21,4.21,0,0,0-3.35,1.49,8.42,8.42,0,0,0-1.55,4.78h9.56a8.78,8.78,0,0,0-1.1-4.56A3.89,3.89,0,0,0,576.74,495Z" transform="translate(-206 -278)"/><path class="cls-3" d="M594.87,516.72v-5.19h3.43V495.85h-3.43V490.7h9.34l1.42,5.86a11.74,11.74,0,0,1,3.56-5,8.52,8.52,0,0,1,5.31-1.64,11.86,11.86,0,0,1,2.35.21,10.66,10.66,0,0,1,1.94.57l-2.36,6.4a10,10,0,0,0-1.42-.3,12.32,12.32,0,0,0-1.57-.1,5.93,5.93,0,0,0-4.47,2.09,13.66,13.66,0,0,0-2.93,5.29v7.45h5.15v5.19Zm17.62-15.14V494l1.15-3.28h5.15l-1.45,10.88Z" transform="translate(-206 -278)"/><path class="cls-3" d="M10,154H154a0,0,0,0,1,0,0V298a0,0,0,0,1,0,0H34a24,24,0,0,1-24-24V154A0,0,0,0,1,10,154Z"/></svg>